HIERARCHY
ROOT joint_0
{
	OFFSET 0.000000 0.000000 0.000000
	CHANNELS 6 Xposition Yposition Zposition Zrotation Yrotation Xrotation 
	JOINT joint_1
	{
		OFFSET 1.363060 -1.794630 0.839290
		CHANNELS 3 Zrotation Yrotation Xrotation
		JOINT joint_2
		{
			OFFSET 2.448110 -6.726130 0.000000
			CHANNELS 3 Zrotation Yrotation Xrotation
			JOINT joint_3
			{
				OFFSET 2.562200 -7.039590 0.000000
				CHANNELS 3 Zrotation Yrotation Xrotation
				JOINT joint_4
				{
					OFFSET 0.157640 -0.433110 2.322550
					CHANNELS 3 Zrotation Yrotation Xrotation
					End Site
					{
						OFFSET 0.000000 0.000000 0.000000
					}
				}
			}
		}
	}
	JOINT joint_5
	{
		OFFSET -1.305520 -1.794630 0.839290
		CHANNELS 3 Zrotation Yrotation Xrotation
		JOINT joint_6
		{
			OFFSET -2.542530 -6.985550 0.000000
			CHANNELS 3 Zrotation Yrotation Xrotation
			JOINT joint_7
			{
				OFFSET -2.568260 -7.056230 0.000000
				CHANNELS 3 Zrotation Yrotation Xrotation
				JOINT joint_8
				{
					OFFSET -0.164730 -0.452590 2.363150
					CHANNELS 3 Zrotation Yrotation Xrotation
					End Site
					{
						OFFSET 0.000000 0.000000 0.000000
					}
				}
			}
		}
	}
	JOINT joint_9
	{
		OFFSET 0.028270 2.035590 -0.193380
		CHANNELS 3 Zrotation Yrotation Xrotation
		JOINT joint_10
		{
			OFFSET 0.056720 2.048850 -0.042750
			CHANNELS 3 Zrotation Yrotation Xrotation
			JOINT joint_11
			{
				OFFSET -0.054170 1.746240 0.172020
				CHANNELS 3 Zrotation Yrotation Xrotation
				JOINT joint_12
				{
					OFFSET 0.104070 1.761360 -0.123970
					CHANNELS 3 Zrotation Yrotation Xrotation
					End Site
					{
						OFFSET 0.000000 0.000000 0.000000
					}
				}
			}
			JOINT joint_13
			{
				OFFSET 3.362410 1.200890 -0.311210
				CHANNELS 3 Zrotation Yrotation Xrotation
				JOINT joint_14
				{
					OFFSET 4.983000 -0.000000 -0.000000
					CHANNELS 3 Zrotation Yrotation Xrotation
					JOINT joint_15
					{
						OFFSET 3.483560 -0.000000 -0.000000
						CHANNELS 3 Zrotation Yrotation Xrotation
						JOINT joint_16
						{
							OFFSET 0.000000 0.000000 0.000000
							CHANNELS 3 Zrotation Yrotation Xrotation
							End Site
							{
								OFFSET 0.000000 0.000000 0.000000
							}
						}
					}
				}
			}
			JOINT joint_17
			{
				OFFSET -3.136600 1.374050 -0.404650
				CHANNELS 3 Zrotation Yrotation Xrotation
				JOINT joint_18
				{
					OFFSET -5.241900 -0.000000 -0.000000
					CHANNELS 3 Zrotation Yrotation Xrotation
					JOINT joint_19
					{
						OFFSET -3.444170 -0.000000 -0.000000
						CHANNELS 3 Zrotation Yrotation Xrotation
						JOINT joint_20
						{
							OFFSET 0.000000 0.000000 0.000000
							CHANNELS 3 Zrotation Yrotation Xrotation
							End Site
							{
								OFFSET 0.000000 0.000000 0.000000
							}
						}
					}
				}
			}
		}
	}
}
MOTION
Frames: 18
Frame Time: 0.031667
0.383414 16.863363 -1.810240 -1.405944 0.763194 0.967095 -12.727390 3.365519 4.793997 1.298611 2.398362 9.837402 2.355942 3.711873 -7.180382 0.494543 -2.226789 -6.222413 17.521959 -1.072413 -0.780242 -1.179492 -0.384827 4.110023 0.819620 0.281121 -6.655226 0.581207 -0.159742 -0.968607 1.362264 -0.471198 -4.736153 1.289878 1.551341 11.116328 6.114026 -2.249317 13.025593 1.916113 -4.913972 6.031528 -52.238943 -2.436422 52.389627 19.547732 -14.060977 -19.978570 -1.612801 -0.206940 8.120454 -5.755029 0.014825 -0.028431 48.394165 1.974746 3.013543 -19.234535 13.002746 -13.915296 2.994854 -7.997250 8.515085 5.620771 -0.041514 -0.018374 
0.383318 16.859610 -1.817252 -1.379972 0.747692 0.969901 -27.860907 2.596356 -10.115761 0.545372 0.681092 13.690008 3.730527 1.229701 -2.933962 1.174511 -2.568423 -7.525651 23.474732 -3.631309 -4.826327 -3.071870 -2.829292 1.102743 -2.962755 4.046371 -10.124444 0.308402 -0.969154 0.963302 0.163234 4.394821 -7.138635 1.752431 -3.217657 3.325078 -4.396705 -3.781491 6.946516 -0.182777 -5.965740 4.746329 -33.134624 -0.624534 -1.904904 16.350004 -12.894491 -24.020331 2.596450 1.565705 -6.687957 -5.359769 0.002961 -0.057376 27.655402 -1.357127 -18.834426 -28.100759 15.400355 -25.288289 -1.129245 -7.843177 2.612012 5.215296 -0.082505 0.003270 
0.359751 16.856756 -1.922252 -1.278687 2.231196 1.264987 -26.890383 -0.430427 -11.252679 2.627202 -2.864700 8.373541 1.216448 1.185264 -6.548595 1.233722 -2.960768 -8.784708 20.481465 5.177375 -0.954430 -1.179080 1.883440 -0.402999 -0.409951 5.950967 -12.486836 0.470247 -0.997022 1.097177 -0.774327 4.334407 -13.577830 0.794606 -1.966648 16.926291 -3.253757 -0.391333 14.783511 -1.136345 -6.580225 2.509066 -22.687447 -2.093571 -8.384613 14.997639 -14.257199 -17.163985 3.446204 2.198497 -3.436291 -4.874992 -0.000704 -0.078991 -3.150944 -1.098143 -27.977920 -23.085483 16.208427 -17.864104 1.720060 -10.981129 2.862773 4.703633 -0.115182 0.005773 
0.356616 16.846096 -1.948889 -0.875224 1.924792 0.723241 -14.533668 -0.942067 -8.925264 1.250048 -4.681452 4.154846 -2.097744 5.099636 -1.554467 0.955733 -2.367397 -6.899697 20.418091 -1.272320 4.680871 -5.325088 2.722403 -9.349586 -8.322720 5.952293 -7.892766 0.460337 -2.026390 3.956064 -2.128870 2.358787 -8.253147 7.134601 -0.381129 14.117201 -6.798900 -0.901976 12.080525 0.628942 -7.198663 1.815938 -11.426320 -2.082610 -9.388807 15.872912 -5.290859 -18.538505 6.890087 2.872376 3.675362 -4.440450 -0.004576 -0.090411 -3.848910 1.766004 -20.902956 -21.065951 11.940736 -19.071770 0.484199 -7.229326 -1.461706 4.232554 -0.128771 0.003784 
0.352688 16.855104 -1.909324 -1.206381 1.764283 0.913657 -16.073117 1.494558 0.967175 2.985090 -7.519819 -1.514443 0.551487 7.660599 -4.440250 0.547576 -0.452108 -1.054598 20.841081 -2.112469 5.235120 -3.527606 6.308205 -11.434058 -6.009113 7.183159 -7.615554 -0.237332 -5.003085 12.516743 3.409884 4.748132 -14.957264 0.034164 4.082923 13.783172 -6.869971 -1.074712 17.477430 1.165597 -7.556851 1.689740 1.647119 -4.364692 -13.116910 5.993803 -5.076209 -10.950881 5.790979 -0.775610 2.139065 -4.043261 0.005045 -0.082248 -8.313780 5.694685 -16.580515 -18.966221 10.249162 -29.229719 -4.305628 -15.709017 3.539985 3.800082 -0.125639 -0.001103 
0.353326 16.855556 -1.907733 -1.240121 1.724975 0.923689 -14.983854 -0.055293 -5.792712 10.582208 -10.955387 1.156546 0.598146 -0.256347 -6.361057 0.121767 1.203079 3.721569 20.527987 -8.117452 8.820998 -5.303857 5.082953 -13.454344 -8.305052 7.215338 -4.963309 -0.470831 -7.815671 19.946934 1.348018 -2.468748 -7.392134 4.007147 0.995120 8.441137 -6.744472 -5.320625 16.744554 1.381183 -8.075044 -0.435906 5.595834 -0.313339 -13.271626 5.654361 -6.860244 -15.808517 2.831379 1.318233 5.236547 -3.773326 0.007480 -0.074355 -11.841498 5.281606 -16.702271 -22.599214 14.134860 -16.390594 -6.348620 -14.260279 3.257497 3.501221 -0.117582 -0.013353 
0.353497 16.856457 -1.906577 -1.280150 1.729442 0.936999 -19.585818 2.853212 5.527795 7.115694 -11.259219 -0.566911 0.661111 2.345929 -7.649634 -0.094621 1.482840 4.794970 18.675754 -6.604031 8.008897 -4.112140 6.306024 -7.951274 -7.698142 3.091274 1.406666 0.383163 -7.004776 17.498101 1.351799 2.967496 -17.977715 11.288658 -4.134306 17.717903 -9.526038 -1.029958 19.305518 3.283031 -7.921607 -2.018747 14.240081 1.101631 -15.787270 6.738955 -2.027317 -20.304356 5.380418 1.758892 1.149938 -3.663834 0.003272 -0.057234 -15.780992 1.409137 -9.261691 -18.764584 8.029216 -24.098244 -9.733356 -8.362515 4.802627 3.387256 -0.095095 -0.009560 
0.354524 16.854355 -1.908769 -1.262170 1.675628 0.897137 -14.156486 2.108473 0.626426 12.600072 -8.715077 -16.423963 7.083552 5.947816 -9.594123 -0.435990 1.246610 4.545838 22.916833 -5.692656 2.540403 -0.692124 0.621306 -10.921636 -6.463930 1.085504 1.079266 1.153981 -6.366669 15.572377 -2.459648 0.399312 -15.446118 10.576816 -3.509953 20.166265 -8.746335 -2.412522 26.425298 6.834240 -5.864728 -2.533681 15.294576 1.101215 -15.899012 0.959703 -5.347305 -17.325946 1.218155 -3.361712 2.706845 -3.684722 -0.005084 -0.044806 -21.462729 4.535888 -1.486678 -9.486358 14.029153 -22.278921 -11.521750 -4.398059 5.603122 3.420088 -0.077486 -0.013148 
0.355215 16.853754 -1.910480 -1.258266 1.650171 0.888190 -16.758412 8.909598 -5.012874 1.457440 -8.386303 -4.050705 -3.387841 -3.401080 -7.212020 -0.486345 1.212492 4.795539 15.204242 -5.017122 6.012191 -7.919759 4.401956 -6.077570 -3.992310 3.446453 0.712578 2.118784 -4.055513 8.517804 3.880099 -2.393167 -17.519452 17.252361 -0.512690 15.615144 -6.913111 4.889903 23.243318 6.987477 -3.173807 -3.909290 25.939407 -7.770053 -12.636564 -6.068796 -2.436114 -18.868008 0.304290 -5.750789 0.149937 -3.883753 -0.021659 -0.019961 -17.512455 3.544272 -7.846155 -14.797642 19.674852 -31.761158 -3.931228 -12.216883 5.941796 3.641777 -0.048632 -0.003586 
0.354847 16.854204 -1.912898 -1.277922 1.673580 0.855423 -14.121858 2.624947 -10.035962 -11.417205 -13.375536 1.890888 -2.625917 -3.491215 5.937687 -0.012250 1.951508 6.955901 12.884506 -7.440283 9.113257 -2.822019 0.640978 -16.204982 -1.372630 6.929194 1.520265 2.357942 -4.372769 8.382472 -4.206223 0.913717 -18.232358 8.334667 -7.085105 15.972570 -10.190040 0.520661 18.625518 4.508675 -1.749471 -3.671259 31.656530 -3.660533 -20.664606 -1.929069 -11.252548 -21.679645 5.249810 -4.761718 -1.092993 -4.156009 -0.034061 0.006573 -29.499765 6.646676 -8.186485 -6.706217 23.642966 -31.045894 -4.805820 -8.101753 7.382747 3.930924 -0.019333 0.007699 
0.355467 16.859909 -1.895105 -1.494062 1.709578 1.028775 -33.309405 6.472904 -5.084660 2.334101 -1.813292 -13.148696 -16.829689 -6.982189 1.037634 0.885030 2.708797 9.022776 -0.519864 -2.277281 10.766461 -3.172083 -7.942790 -4.495042 -0.371882 3.123128 7.275490 1.508360 -7.366161 16.850924 4.604521 -1.512737 -13.187908 16.531964 -6.118953 16.137338 1.979857 1.124291 23.507698 8.230245 -1.126721 0.708170 37.152452 -13.574204 -22.968130 5.454749 -23.612574 -23.368025 1.529853 -1.257570 -10.330245 -4.602843 -0.030567 0.014202 -32.842739 4.752523 -17.942975 -4.975112 33.534538 -26.931735 -13.133551 -3.102686 0.875270 4.410937 -0.017373 0.023369 
0.355698 16.858559 -1.896486 -1.490068 1.658553 0.979278 -33.441870 11.155729 -31.674736 -1.379852 -0.372369 -15.723480 -4.442836 -8.625013 5.711417 1.516665 2.572497 8.768428 12.954276 -3.176306 16.764771 -0.659434 7.154165 -7.731352 1.231135 2.881900 16.726954 0.809645 -9.837523 24.600197 -8.220862 0.769958 -22.536447 12.671647 -0.774587 26.274833 -0.932780 -10.603399 32.285860 18.136531 -1.348767 8.548503 44.962022 0.016354 -40.100345 5.681270 -26.675872 -30.220893 -7.762894 5.108574 9.078873 -4.927235 -0.027115 0.048788 -24.402898 -0.811169 -15.632008 -6.000566 40.456201 -23.093279 -4.326871 2.054953 3.245275 4.786503 0.020233 0.030388 
0.356209 16.859009 -1.897598 -1.467705 1.612175 0.967268 -39.323660 6.877482 -43.878655 -4.158377 -1.612530 -5.775116 -5.598126 -10.034891 1.710741 2.118523 0.874860 3.844728 23.253557 -0.402393 -1.376476 -2.987137 -5.388545 0.160081 4.615319 1.148338 14.110154 0.251170 -6.606102 17.028410 -2.632729 1.055687 -6.679926 1.810356 -8.829234 12.616328 1.024772 4.806674 35.212897 21.860429 -1.431478 15.465355 73.447606 -4.500642 -34.197456 13.778576 -37.741112 -22.993176 5.343021 -0.154339 -1.841244 -5.275402 -0.065232 0.081071 -27.778946 -8.054870 -18.676958 -13.833379 55.348277 -38.281667 -15.445904 -3.674316 -9.418746 5.184121 0.063919 -0.007587 
0.356011 16.859159 -1.899114 -1.498228 1.643050 0.943425 -16.401198 14.469303 -58.567568 -1.247003 -5.286872 -0.522328 31.706329 -11.382413 24.078331 2.191022 -0.619020 -0.768848 17.096295 1.123616 -14.845032 2.195192 -16.511740 -0.638127 18.373047 -2.012482 13.946129 0.286026 -3.618349 8.623532 7.470458 9.231084 -15.041801 1.133833 -7.535583 19.818456 11.517901 -4.856659 29.940329 17.915250 -3.314602 17.262386 129.222794 -11.654270 -142.264180 24.554460 -40.826660 -37.602596 -8.618999 11.484369 -23.357850 -5.669034 -0.105920 0.177411 -63.397625 8.989467 10.907987 -31.963636 54.481509 -41.597085 -10.277566 -8.554388 -4.053423 5.636687 0.174431 -0.042128 
0.357096 16.857958 -1.897973 -1.507732 1.614423 0.943045 -21.471369 20.019643 -25.360846 8.526081 4.266060 -0.221976 50.135989 4.197223 -33.458648 1.062160 0.175608 2.404751 31.180739 3.240779 -4.611253 -14.638709 3.343731 7.962930 -18.550169 -1.608637 28.032666 -0.215674 -4.505080 12.673700 -5.758109 4.186988 -10.090359 15.898391 -19.650492 10.849490 -0.901043 1.702037 26.095137 15.950051 -5.755653 17.752413 -10.615762 -15.244919 -69.539228 23.476118 -30.099039 -36.502607 -17.262789 11.279601 10.717765 -6.145327 -0.212056 0.287845 45.921831 23.153356 2.698019 -38.098778 50.210052 -46.902305 -18.970406 9.513671 14.437546 6.152537 0.290788 0.005038 
0.357464 16.858408 -1.900766 -1.489286 1.570883 0.920987 -47.062746 22.454013 -28.061337 13.911737 -6.617454 -12.996058 6.160736 4.100291 -45.931967 1.073617 1.157156 6.154183 50.711901 -21.113184 35.777531 -10.055132 -10.041417 13.528837 -10.264054 1.646791 -24.752010 -1.121692 -5.906850 17.024547 15.800020 9.500966 -3.166439 18.928696 8.005993 25.503689 -2.287969 16.026103 45.316864 17.200926 -7.941720 21.921883 -34.832623 -30.011192 -82.770643 14.185291 -32.773020 -31.030844 3.627954 -0.025089 10.966537 -6.637493 -0.293343 0.395545 16.428960 8.458783 -15.413527 -18.070812 43.981634 -15.122310 -4.561787 3.571549 -15.662720 6.689447 0.391439 0.084783 
0.357580 16.857958 -1.901502 -1.507811 1.578599 0.911483 -48.071028 13.393385 -15.238135 -2.025646 4.687846 -22.802324 -7.366514 2.098826 -6.804484 1.076804 1.915844 8.987917 53.452278 2.220102 4.022135 -8.797947 -14.533973 11.642268 -0.390370 5.098081 -18.123934 -1.095475 -5.705245 15.796033 -2.788994 -5.001866 -19.548828 -7.251645 5.116933 0.690284 22.310782 -14.471685 54.802528 16.683331 -9.458934 25.405041 -29.540035 -22.334196 -38.419958 23.502382 -35.791448 -45.491812 -5.880996 7.367513 -25.899625 -6.971379 -0.326945 0.446460 25.954980 4.381936 -63.997636 -8.775697 49.117362 -24.132500 -12.983746 3.923194 -49.302413 7.086305 0.435864 0.194545 
0.358276 16.858109 -1.902733 -1.485188 1.556383 0.880785 -44.865498 1.004937 2.821384 -9.822332 -9.760548 -0.689663 -21.600081 -1.477243 -33.773520 1.885531 0.301184 4.461982 29.849894 7.942789 0.484572 -2.894710 -10.908750 2.709115 2.195569 -6.862201 -76.734266 -0.326138 -3.881963 10.040929 11.186702 2.280156 1.140289 9.432904 -0.413496 32.461635 9.254018 -4.724710 33.324520 12.623813 -9.090224 23.771502 3.160716 -9.852982 -37.960504 17.877829 -26.647186 -24.824437 -25.453304 11.946865 66.787905 -7.238819 -0.346742 0.453136 25.725547 6.720109 -53.160687 1.797991 41.593711 -22.697922 -6.148727 -6.620924 -12.060715 7.407775 0.454876 0.231786 
